#!OML:ASF H:\ManfredObstacles\Project 1\Capture day 2\Session 1\male.ASF
:FULLY-SPECIFIED
:DEGREES
691
root 0.839255 15.7052 2.80066 -170.954 -10.8926 174.772
lowerback -5.32424 -3.11287 -8.14057
upperback 1.60275 -3.62912 0.963718
thorax 5.25249 -2.07635 5.20715
lowerneck -37.0074 0.596396 1.61645
upperneck 39.1882 -3.7006 2.72532
head 23.4875 -1.18965 -0.159434
rclavicle -1.27222e-014 -2.42517e-014
rhumerus -51.1712 -31.0866 -59.7292
rradius 22.9442
rwrist 41.2799
rhand -0.895656 -6.14729
rfingers 7.12502
rthumb 24.7322 -34.5685
lclavicle -1.27222e-014 -2.42517e-014
lhumerus -24.6932 6.12634 87.4738
lradius 21.7805
lwrist -47.7302
lhand 5.33877 5.92233
lfingers 7.12502
lthumb 30.693 33.3819
rfemur -37.1335 5.18274 10.3193
rtibia 26.3949
rfoot -1.07476 -26.4186
rtoes -23.2036
lfemur 20.0538 -15.079 -26.5381
ltibia 9.54166e-015
lfoot 4.12033 6.71208
ltoes -23.333
692
root 0.867063 15.7138 2.66745 -171.039 -10.7403 175.144
lowerback -5.33353 -3.05983 -7.75286
upperback 1.51394 -3.58974 1.07419
thorax 5.13808 -2.03845 5.11291
lowerneck -36.9769 0.644995 1.65399
upperneck 39.223 -3.6175 2.65143
head 23.5004 -1.16833 -0.183278
rclavicle -7.9663e-014 9.54166e-015
rhumerus -51.3472 -31.1623 -59.4162
rradius 22.8514
rwrist 41.3811
rhand -0.919124 -6.17919
rfingers 7.12502
rthumb 24.7097 -34.6035
lclavicle -7.9663e-014 9.54166e-015
lhumerus -24.7645 6.53426 87.4406
lradius 21.7144
lwrist -48.0003
lhand 5.18475 5.98523
lfingers 7.12502
lthumb 30.5462 33.4722
rfemur -36.8613 4.86011 11.2004
rtibia 26.6572
rfoot -0.756582 -25.6432
rtoes -23.392
lfemur 20.4792 -14.8094 -26.0222
ltibia -8.26944e-014
lfoot 4.66832 5.96827
ltoes -23.5477
693
root 0.892868 15.7215 2.53569 -171.12 -10.4857 175.549
lowerback -5.36145 -2.98293 -7.31884
upperback 1.42984 -3.52043 1.18545
thorax 5.03246 -1.98556 4.99544
lowerneck -36.9354 0.717877 1.75313
upperneck 39.2323 -3.50338 2.52948
head 23.4828 -1.1319 -0.235023
rclavicle -3.70733e-014 6.36111e-015
rhumerus -51.4639 -31.2654 -59.1045
rradius 22.742
rwrist 41.5351
rhand -0.924576 -6.21263
rfingers 7.12502
rthumb 24.7045 -34.6377
lclavicle -3.70733e-014 6.36111e-015
lhumerus -24.8597 6.97071 87.3875
lradius 21.6719
lwrist -48.2236
lhand 5.0414 6.05516
lfingers 7.12502
lthumb 30.4095 33.5675
rfemur -36.6058 4.52481 12.1261
rtibia 26.9284
rfoot -0.555296 -24.7716
rtoes -23.5229
lfemur 20.8875 -14.437 -25.4854
ltibia -2.22639e-014
lfoot 5.28917 5.15397
ltoes -23.7255
694
root 0.917769 15.7289 2.40496 -171.188 -10.1649 175.95
lowerback -5.41138 -2.90269 -6.89113
upperback 1.35412 -3.44502 1.29653
thorax 4.94886 -1.93167 4.88026
lowerneck -36.886 0.809071 1.87927
upperneck 39.2147 -3.35545 2.38232
head 23.4375 -1.08176 -0.294584
rclavicle 1.61513e-014 -4.37326e-015
rhumerus -51.4943 -31.3775 -58.811
rradius 22.6121
rwrist 41.7464
rhand -0.914204 -6.21875
rfingers 7.12502
rthumb 24.7144 -34.6424
lclavicle 1.61513e-014 -4.37326e-015
lhumerus -24.9799 7.44518 87.3198
lradius 21.6659
lwrist -48.3614
lhand 4.92776 6.13183
lfingers 7.12502
lthumb 30.3011 33.6642
rfemur -36.3726 4.22112 13.027
rtibia 27.2145
rfoot -0.438221 -23.8799
rtoes -23.6055
lfemur 21.2727 -14.0026 -24.9577
ltibia -2.22639e-014
lfoot 5.98713 4.26393
ltoes -23.802
695
root 0.942621 15.7362 2.27497 -171.233 -9.80782 176.278
lowerback -5.48077 -2.83488 -6.53736
upperback 1.28902 -3.37939 1.38639
thorax 4.89332 -1.88636 4.78173
lowerneck -36.8244 0.923137 2.02285
upperneck 39.1944 -3.18088 2.23144
head 23.3863 -1.02046 -0.35126
rclavicle 7.50412e-015 1.19271e-014
rhumerus -51.4569 -31.5064 -58.5436
rradius 22.4939
rwrist 42.0321
rhand -0.87794 -6.18497
rfingers 7.12502
rthumb 24.7492 -34.6039
lclavicle 7.50412e-015 1.19271e-014
lhumerus -25.1249 7.90277 87.2365
lradius 21.7073
lwrist -48.3753
lhand 4.83673 6.18983
lfingers 7.12502
lthumb 30.2142 33.7381
rfemur -36.1673 3.9365 13.8273
rtibia 27.5195
rfoot -0.384704 -22.9757
rtoes -23.6765
lfemur 21.6279 -13.5441 -24.5064
ltibia -4.77083e-014
lfoot 6.78574 3.29201
ltoes -23.8435
696
root 0.96862 15.7436 2.14517 -171.266 -9.45872 176.514
lowerback -5.55615 -2.79145 -6.28898
upperback 1.23991 -3.33778 1.45091
thorax 4.86702 -1.85735 4.71235
lowerneck -36.7593 1.043 2.15896
upperneck 39.1695 -2.99872 2.09424
head 23.3323 -0.955869 -0.396577
rclavicle 3.8266e-015 -1.03368e-014
rhumerus -51.348 -31.6323 -58.3396
rradius 22.4068
rwrist 42.3314
rhand -0.812665 -6.12502
rfingers 7.12502
rthumb 24.8118 -34.5353
lclavicle 3.8266e-015 -1.03368e-014
lhumerus -25.2854 8.31746 87.1451
lradius 21.802
lwrist -48.2572
lhand 4.79513 6.22748
lfingers 7.12502
lthumb 30.1745 33.783
rfemur -35.962 3.69432 14.4974
rtibia 27.8428
rfoot -0.384919 -22.1011
rtoes -23.6825
lfemur 21.9643 -13.1065 -24.1476
ltibia -3.18055e-015
lfoot 7.71059 2.24232
ltoes -23.8576
697
root 0.996338 15.7517 2.0156 -171.294 -9.14548 176.65
lowerback -5.62137 -2.78385 -6.15951
upperback 1.20768 -3.33525 1.49231
thorax 4.8642 -1.85208 4.68123
lowerneck -36.7101 1.17756 2.29057
upperneck 39.1672 -2.80303 1.96726
head 23.3051 -0.886458 -0.432056
rclavicle 1.14301e-014 1.74931e-014
rhumerus -51.1484 -31.7242 -58.2315
rradius 22.3624
rwrist 42.6085
rhand -0.723793 -6.05535
rfingers 7.12502
rthumb 24.8969 -34.4539
lclavicle 1.14301e-014 1.74931e-014
lhumerus -25.4571 8.66626 87.0551
lradius 21.949
lwrist -48.0173
lhand 4.78264 6.24353
lfingers 7.12502
lthumb 30.1626 33.8012
rfemur -35.7409 3.48945 15.0326
rtibia 28.1792
rfoot -0.43856 -21.2637
rtoes -23.5115
lfemur 19.3144 -12.6411 -23.8368
ltibia 5.80532
lfoot 6.66666 2.98188
ltoes -23.7669
698
root 1.02617 15.7607 1.88574 -171.324 -8.89697 176.702
lowerback -5.67826 -2.81554 -6.136
upperback 1.19344 -3.377 1.51502
thorax 4.88693 -1.87274 4.68503
lowerneck -36.5355 1.33834 2.51442
upperneck 39.5262 -2.56667 1.75892
head 22.7803 -0.810192 -0.462147
rclavicle 2.48481e-015 2.38542e-015
rhumerus -50.8607 -31.7492 -58.2637
rradius 22.3925
rwrist 42.7718
rhand -0.60093 -6.00442
rfingers 7.12502
rthumb 25.0147 -34.3866
lclavicle 2.48481e-015 2.38542e-015
lhumerus -25.6279 8.90741 86.978
lradius 22.1361
lwrist -47.6854
lhand 4.80839 6.24043
lfingers 7.12502
lthumb 30.1872 33.7936
rfemur -35.4808 3.32717 15.4529
rtibia 28.5158
rfoot -0.549208 -20.521
rtoes -23.2031
lfemur 17.8633 -12.2703 -23.6463
ltibia 9.24538
lfoot 6.64081 2.86016
ltoes -23.5864
699
root 1.0581 15.7708 1.75548 -171.363 -8.72543 176.718
lowerback -5.72708 -2.88259 -6.17325
upperback 1.19337 -3.46175 1.53592
thorax 4.92952 -1.91741 4.71616
lowerneck -36.5236 1.4896 2.67806
upperneck 39.5112 -2.34705 1.60511
head 22.7592 -0.729301 -0.510124
rclavicle 2.64384e-014 -4.37326e-015
rhumerus -50.4835 -31.6802 -58.4451
rradius 22.4954
rwrist 42.7739
rhand -0.475847 -5.95831
rfingers 7.12502
rthumb 25.1345 -34.3238
lclavicle 2.64384e-014 -4.37326e-015
lhumerus -25.7848 9.03504 86.9265
lradius 22.3395
lwrist -47.2859
lhand 4.84682 6.21203
lfingers 7.12502
lthumb 30.2239 33.7585
rfemur -35.171 3.22478 15.8071
rtibia 28.8344
rfoot -0.730298 -19.9344
rtoes -22.7942
lfemur 16.7423 -11.9849 -23.4888
ltibia 12.0059
lfoot 7.04129 2.45553
ltoes -23.2306
700
root 1.09208 15.782 1.62447 -171.417 -8.63461 176.725
lowerback -5.77383 -2.9761 -6.24406
upperback 1.21427 -3.57926 1.55973
thorax 5.00003 -1.98076 4.7648
lowerneck -36.5627 1.63076 2.82716
upperneck 39.4842 -2.13171 1.45906
head 22.7451 -0.648354 -0.551661
rclavicle 9.24349e-015 2.78299e-015
rhumerus -50.0155 -31.5009 -58.7961
rradius 22.678
rwrist 42.5734
rhand -0.355934 -5.94359
rfingers 7.12502
rthumb 25.2494 -34.2929
lclavicle 9.24349e-015 2.78299e-015
lhumerus -25.911 9.01001 86.9176
lradius 22.5598
lwrist -46.8259
lhand 4.91541 6.18278
lfingers 7.12502
lthumb 30.2893 33.7173
rfemur -34.7932 3.19099 16.1252
rtibia 29.1177
rfoot -0.964913 -19.5327
rtoes -22.3302
lfemur 15.7193 -11.7496 -23.3142
ltibia 14.5499
lfoot 7.64732 1.94847
ltoes -22.8069
701
root 1.12734 15.7942 1.49334 -171.482 -8.60615 176.739
lowerback -5.80792 -3.08254 -6.31937
upperback 1.23616 -3.71469 1.58775
thorax 5.06787 -2.05323 4.81855
lowerneck -36.6139 1.76582 2.98349
upperneck 39.4586 -1.92571 1.30174
head 22.7363 -0.570878 -0.603224
rclavicle -7.90169e-015 -1.63003e-014
rhumerus -49.5107 -31.1969 -59.2846
rradius 22.9472
rwrist 42.1598
rhand -0.257115 -5.94989
rfingers 7.12502
rthumb 25.3441 -34.2858
lclavicle -7.90169e-015 -1.63003e-014
lhumerus -26.0256 8.83873 86.9419
lradius 22.7821
lwrist -46.3928
lhand 5.00138 6.11338
lfingers 7.12502
lthumb 30.3713 33.6328
rfemur -34.3544 3.20454 16.434
rtibia 29.3483
rfoot -1.27062 -19.2798
rtoes -21.7826
lfemur 14.6932 -11.4459 -23.0764
ltibia 17.0484
lfoot 8.31784 1.34628
ltoes -22.2519
702
root 1.16333 15.8071 1.36256 -171.563 -8.62445 176.782
lowerback -5.82217 -3.1877 -6.37269
upperback 1.25549 -3.8518 1.62361
thorax 5.12147 -2.12561 4.8687
lowerneck -36.6437 1.87614 3.12795
upperneck 39.394 -1.73948 1.1416
head 22.6931 -0.501747 -0.658846
rclavicle 2.47984e-014 -1.19271e-014
rhumerus -49.007 -30.7834 -59.864
rradius 23.2941
rwrist 41.5888
rhand -0.195853 -5.94247
rfingers 7.12502
rthumb 25.4028 -34.27
lclavicle 2.47984e-014 -1.19271e-014
lhumerus -26.1222 8.52647 87.0096
lradius 22.9993
lwrist -45.9755
lhand 5.09558 6.03329
lfingers 7.12502
lthumb 30.4611 33.5361
rfemur -33.849 3.24307 16.7645
rtibia 29.5133
rfoot -1.60968 -19.1258
rtoes -21.1797
lfemur 13.6351 -11.0545 -22.7573
ltibia 19.5768
lfoot 9.02684 0.691802
ltoes -21.5158
